<?xml version="1.0" encoding="UTF-8" standalone="no"?>
<!-- Created with Inkscape (http://www.inkscape.org/) -->

<svg
   width="210mm"
   height="297mm"
   viewBox="0 0 210 297"
   version="1.1"
   id="svg1"
   xml:space="preserve"
   xmlns="http://www.w3.org/2000/svg"
   xmlns:svg="http://www.w3.org/2000/svg"><defs
     id="defs1" /><g
     id="layer1"><path
       style="fill:#040404;stroke:none"
       d="m 92.799514,79.670839 c -13.034906,1.42737 -26.036338,3.98667 -38.197917,9.03222 -23.661686,9.81668 -48.4540561,31.151731 -40.686857,59.540901 1.180685,4.3154 3.03173,8.28253 5.541992,11.98365 3.49565,5.15398 7.786945,9.68019 12.675504,13.53272 24.99185,19.69536 59.699204,25.12924 90.626434,21.51028 20.80751,-2.4348 43.69478,-10.03853 59.16784,-24.63237 14.33713,-13.52245 20.91458,-33.33307 11.26305,-51.60446 C 186.95143,107.22434 175.67858,98.549699 163.9525,92.635709 142.47571,81.803999 116.78562,77.044289 92.799514,79.670839 m 4.493875,4.40996 c 25.981521,-2.57994 57.359441,4.90626 77.893801,21.277901 16.57284,13.2132 23.58407,33.98258 11.41019,52.62198 -3.03777,4.65111 -7.07726,8.72256 -11.41019,12.17712 -6.52141,5.19938 -13.9791,9.29824 -21.72039,12.37048 -10.72605,4.2568 -22.20036,7.15861 -33.70404,8.23181 -28.768642,2.68387 -61.40587,-2.07958 -84.634589,-20.60229 -4.335805,-3.4574 -8.273642,-7.56476 -11.365284,-12.17712 -2.163289,-3.22737 -3.89817,-6.76789 -5.036835,-10.4857 -8.120407,-26.51358 17.692278,-46.8171 39.620439,-55.085861 12.666696,-4.77641 25.531798,-6.99622 38.946898,-8.32832 M 54.601597,177.45413 c -1.618952,-3.72461 -4.313328,-7.78581 -4.181186,-11.98318 0.18725,-5.94789 6.155415,-9.66765 11.670973,-8.27524 6.927026,1.74873 12.407207,7.4682 15.728555,13.51761 h 1.497957 c 0.763042,-1.83382 1.523112,-3.60036 2.800368,-5.15259 9.700267,-11.78855 20.437876,7.38295 22.664916,15.63829 h 0.74898 c 2.43724,-8.09067 12.92061,-27.48034 22.6649,-15.63829 1.27725,1.55222 2.03734,3.31878 2.80038,5.15259 h 1.49796 c 3.63713,-6.00652 8.64749,-11.64101 15.72855,-13.44605 5.87038,-1.49643 12.05886,2.52779 11.67004,8.95229 -0.23936,3.95494 -2.63367,7.67645 -4.18025,11.23457 6.43601,-2.80466 12.55828,-6.40648 17.97403,-10.89824 3.95184,-3.27763 7.40018,-7.18618 10.07912,-11.57112 1.98626,-3.25116 3.50765,-6.74208 4.26082,-10.48571 5.98938,-29.77024 -28.61685,-47.160621 -52.5364,-52.428521 4.23789,8.336321 9.41172,16.402211 7.04047,26.214261 -2.00362,8.29078 -11.14628,16.03698 -18.78314,8.70475 -8.04052,-7.71978 -6.36342,-23.91628 -7.73078,-34.170031 -4.45137,3.86216 -9.36434,8.227501 -15.65541,4.97842 -2.281801,-1.17845 -4.105801,-3.34631 -6.064981,-4.97842 -0.997746,10.254251 0.27086,27.569901 -8.380923,34.760751 -7.367765,6.12366 -15.749537,-0.936 -17.89148,-8.54651 -2.821584,-10.02533 2.46657,-18.44102 6.798958,-26.963221 -23.586215,5.1945 -59.899983,23.292391 -52.273087,53.177501 0.870757,3.41196 2.182255,6.71915 4.003489,9.73673 2.48199,4.11236 5.695438,7.80674 9.326733,10.94157 5.524092,4.76885 12.049948,8.60972 18.720438,11.52779 z"
       id="path2" /></g></svg>
