<?xml version="1.0" encoding="UTF-8" standalone="no"?>
<!-- Created with Inkscape (http://www.inkscape.org/) -->

<svg
   width="210mm"
   height="297mm"
   viewBox="0 0 210 297"
   version="1.1"
   id="svg1"
   xml:space="preserve"
   xmlns="http://www.w3.org/2000/svg"
   xmlns:svg="http://www.w3.org/2000/svg"><defs
     id="defs1" /><g
     id="layer1"><path
       style="fill:#000000;stroke:none;stroke-width:1.9539"
       d="m 93.401549,69.591028 c -8.585543,1.669395 -17.002152,2.447458 -25.331538,5.686656 -22.08515,8.58865 -40.902106,25.289416 -51.093859,46.871936 -21.0820969,44.64444 -3.138506,99.78695 40.754454,122.95269 10.551403,5.56878 22.287301,8.75817 34.120034,9.90859 8.34572,0.8114 17.071,0.91691 25.33151,-0.6893 9.85617,-1.91648 19.5875,-5.06762 28.43334,-9.73625 28.32566,-14.94966 45.56097,-44.18212 48.59519,-75.39147 0.5112,-5.25815 -0.0137,-10.83962 -0.51698,-16.02606 -3.89937,-40.10829 -33.84987,-73.61193 -73.40973,-81.853567 -6.37517,-1.328165 -12.5978,-1.895559 -19.12787,-1.895559 -2.521786,0 -5.275909,-0.309635 -7.754551,0.172334 M 150.26822,96.818106 V 97.33507 H 52.04395 c 1.316676,-2.09472 4.051474,-3.453561 6.203639,-4.738877 5.353476,-3.197229 11.018132,-6.162431 17.060007,-7.840736 5.986424,-1.662887 11.897055,-3.360965 18.093953,-3.963431 20.407311,-1.984012 40.404681,4.329417 56.866671,16.02608 m -101.843073,3.101815 5.600509,10.856369 2.757171,4.91121 5.600508,0.25849 h 14.475171 v 0.51696 c -9.345807,5.90262 -17.800439,12.9717 -22.660516,23.26364 -11.636737,24.64252 -2.409063,56.22223 22.660516,68.75702 v 0.51696 H 62.383335 l -5.600508,0.25848 -2.757171,4.91121 -5.600509,10.85637 c -2.169319,-1.25593 -3.893052,-3.37609 -5.686656,-5.16969 -4.997749,-4.99773 -9.037988,-10.47169 -12.579612,-16.54305 -14.651245,-25.11639 -14.362715,-57.80035 0.516983,-82.71518 4.385357,-7.34295 10.231335,-16.32631 17.749285,-20.678789 m 105.978843,0 c 8.47987,8.479879 15.98219,17.058289 21.1096,27.916379 11.0441,23.38754 9.89513,53.28242 -3.3603,75.47759 -3.59213,6.01474 -7.61756,11.581 -12.57961,16.54305 -1.79358,1.79358 -3.51733,3.91378 -5.68665,5.16969 l -5.60051,-10.85637 -2.75717,-4.91121 -5.60051,-0.25848 h -14.47517 v -0.51696 c 30.75682,-15.3784 36.81626,-58.30624 12.92426,-82.19822 -3.71087,-3.71089 -7.97833,-7.87006 -12.92426,-9.82244 v -0.51696 h 14.99213 l 5.51434,-0.60314 8.44385,-15.422929 M 99.088205,128.95639 c 5.331375,-0.8145 11.848675,1.09929 16.543045,3.44647 3.82505,1.91252 7.4062,4.07467 10.3394,7.32373 14.41997,15.97292 9.87162,41.03384 -8.27153,51.86932 -3.33916,1.99423 -7.47581,3.53039 -11.37333,3.96344 -10.039167,1.11546 -20.215246,-1.3191 -27.916375,-8.27152 -14.159986,-12.7833 -14.186989,-36.82142 0,-49.62911 5.921613,-5.34589 13.014199,-7.53135 20.67879,-8.70233 m 51.180015,98.6551 v 0.51696 c -6.61751,4.52778 -13.23583,8.30653 -20.67879,11.20102 -25.83738,10.04788 -55.421096,4.51894 -77.54548,-11.20102 l 7.237566,-0.51696 h 18.610916 z"
       id="path9" /></g></svg>
