<?xml version="1.0" encoding="UTF-8" standalone="no"?>
<!-- Created with Inkscape (http://www.inkscape.org/) -->

<svg
   width="210mm"
   height="297mm"
   viewBox="0 0 210 297"
   version="1.1"
   id="svg1"
   xml:space="preserve"
   inkscape:version="1.3.2 (091e20e, 2023-11-25, custom)"
   sodipodi:docname="MISKEY.svg"
   xmlns:inkscape="http://www.inkscape.org/namespaces/inkscape"
   xmlns:sodipodi="http://sodipodi.sourceforge.net/DTD/sodipodi-0.dtd"
   xmlns="http://www.w3.org/2000/svg"
   xmlns:svg="http://www.w3.org/2000/svg"><sodipodi:namedview
     id="namedview1"
     pagecolor="#ffffff"
     bordercolor="#000000"
     borderopacity="0.25"
     inkscape:showpageshadow="2"
     inkscape:pageopacity="0.0"
     inkscape:pagecheckerboard="0"
     inkscape:deskcolor="#d1d1d1"
     inkscape:document-units="mm"
     inkscape:zoom="0.54273517"
     inkscape:cx="393.37786"
     inkscape:cy="527.88177"
     inkscape:window-width="1920"
     inkscape:window-height="991"
     inkscape:window-x="-9"
     inkscape:window-y="-9"
     inkscape:window-maximized="1"
     inkscape:current-layer="g5" /><defs
     id="defs1" /><g
     inkscape:label="Camada 1"
     inkscape:groupmode="layer"
     id="layer1"><g
       id="g5"><g
         id="g10"
         transform="matrix(0.90397307,0,0,0.8446511,15.584667,-62.029626)"><ellipse
           style="fill:#000000;stroke-width:0.233812"
           id="path1"
           cx="53.593113"
           cy="114.45907"
           rx="33.44595"
           ry="32.872589" /><ellipse
           style="fill:#000000;stroke-width:0.233812"
           id="ellipse1"
           cx="154.2323"
           cy="113.70906"
           rx="33.44595"
           ry="32.872589" /><ellipse
           style="fill:#000000;stroke-width:0.262873"
           id="path2"
           cx="101.69749"
           cy="175.43382"
           rx="59.247101"
           ry="56.031296" /><ellipse
           style="fill:#ffffff;stroke-width:0.47481"
           id="path3"
           cx="89.385178"
           cy="174.36247"
           rx="23.024469"
           ry="43.636013" /><ellipse
           style="fill:#ffffff;stroke-width:0.471065"
           id="ellipse3"
           cx="116.95033"
           cy="174.41017"
           rx="21.856024"
           ry="45.246567" /><ellipse
           style="fill:#ffffff;stroke-width:0.308941"
           id="path4"
           cx="101.97322"
           cy="202.2338"
           rx="44.326584"
           ry="26.05162" /></g><rect
         style="fill:#000000;stroke-width:0.264583"
         id="rect10"
         width="213.03745"
         height="141.37495"
         x="-0.97499979"
         y="156.48747" /><path
         style="fill:#ffffff;stroke-width:0.4875"
         d="m 61.427043,278.71123 c -7.842964,-8.16017 -12.0998,-17.3636 -12.942895,-27.983 -0.583743,-7.35267 1.68742,-17.18671 5.426239,-23.49537 0.934545,-1.5769 1.59539,-2.97087 1.468543,-3.09771 -0.126847,-0.12685 -1.834782,-0.53259 -3.795411,-0.90164 -13.153199,-2.47584 -23.296956,-14.13226 -23.296956,-26.77106 0,-11.49762 8.1467,-21.98543 20.115101,-25.89557 5.12917,-1.67572 13.464164,-1.90144 18.142077,-0.49131 14.049851,4.23527 23.362126,17.10603 21.362087,29.52514 -0.472228,2.93228 -0.456459,3.01431 0.531866,2.76726 6.985502,-1.74616 20.178316,-1.60715 27.468516,0.28943 3.83524,0.99775 4.47823,1.05996 4.2841,0.41449 -0.83648,-2.78152 -1.16549,-7.35611 -0.74321,-10.33358 0.92271,-6.50601 3.43403,-11.16638 8.68802,-16.12271 11.55374,-10.89922 30.49783,-10.895 42.08248,0.009 6.07242,5.71585 8.66714,11.37252 8.68457,18.93299 0.0335,14.51301 -10.8786,25.72739 -26.89518,27.64026 l -4.72422,0.56421 1.68468,2.67032 c 8.45717,13.40496 7.75396,31.85176 -1.74752,45.84332 -2.23263,3.2877 -8.2741,9.91347 -8.67431,9.51326 -0.13869,-0.1387 0.10372,-0.64545 0.53872,-1.12611 1.76303,-1.94812 2.96569,-5.63759 2.9804,-9.14318 0.0185,-4.40705 -1.57885,-7.83402 -5.46235,-11.71904 l -2.78368,-2.78478 0.1629,-3.70815 c 0.69803,-15.88789 -5.9536,-32.41059 -14.70342,-36.52348 -5.14763,-2.41968 -11.35957,-0.89825 -15.60304,3.8215 l -2.13397,2.37347 -1.64888,-1.70123 c -4.265427,-4.40081 -11.228202,-5.62871 -16.507381,-2.91113 -3.987773,2.05279 -7.406983,5.85623 -9.999874,11.1235 -3.386508,6.8795 -4.24643,10.80482 -4.512124,20.59673 l -0.22487,8.2875 -2.063326,2.19375 c -2.786804,2.96295 -3.583887,4.35379 -4.463997,7.78922 -0.953162,3.72049 -0.336524,7.53523 1.765141,10.92017 0.812112,1.30798 1.349798,2.5049 1.194885,2.65983 -0.15494,0.15494 -1.799114,-1.29708 -3.653711,-3.22669 z"
         id="path15" /><ellipse
         style="fill:#000000;stroke-width:0.414893"
         id="path3-7"
         cx="88.603081"
         cy="247.8551"
         rx="20.813499"
         ry="36.857208" /><ellipse
         style="fill:#000000;stroke-width:0.414893"
         id="ellipse2"
         cx="112.4156"
         cy="247.8551"
         rx="20.813499"
         ry="36.857208" /></g></g></svg>
