<?xml version="1.0" encoding="UTF-8" standalone="no"?>
<!-- Created with Inkscape (http://www.inkscape.org/) -->

<svg
   width="210mm"
   height="297mm"
   viewBox="0 0 210 297"
   version="1.1"
   id="svg1"
   xml:space="preserve"
   xmlns="http://www.w3.org/2000/svg"
   xmlns:svg="http://www.w3.org/2000/svg"><defs
     id="defs1" /><g
     id="layer1"><path
       style="fill:#000000"
       d="m 81.902103,195.429 c -4.479984,-8.04569 -8.973864,-15.46296 -9.986401,-16.48284 -1.690791,-1.70305 -2.634017,-1.86102 -11.562105,-1.93647 -5.346621,-0.0452 -10.644731,-0.33921 -11.773577,-0.6534 -1.128846,-0.31418 -3.444877,-2.40968 -5.146736,-4.65666 -1.701858,-2.24698 -3.096156,-4.549 -3.098439,-5.1156 -0.0032,-0.79349 4.220863,-1.03018 18.384853,-1.03018 18.389005,0 18.389005,0 20.486947,2.26639 1.153869,1.24652 4.097449,6.0656 6.54129,10.70908 2.443841,4.64347 4.814212,8.33014 5.26749,8.1926 0.453278,-0.13754 4.347349,-6.0677 8.653494,-13.17813 4.306141,-7.11043 8.200211,-12.92805 8.653481,-12.92805 0.45328,0 4.34735,5.81762 8.6535,12.92805 4.30614,7.11043 8.20021,13.04059 8.65349,13.17813 0.45327,0.13754 2.82364,-3.54913 5.26749,-8.1926 2.44384,-4.64348 5.38742,-9.46256 6.54129,-10.70908 2.09794,-2.26639 2.09794,-2.26639 20.48694,-2.26639 15.27593,0 18.38901,0.19675 18.38901,1.16221 0,0.63921 -1.45018,2.99681 -3.22261,5.23911 -2.25655,2.85475 -4.01684,4.23575 -5.87201,4.60679 -1.45717,0.29143 -6.69941,0.52988 -11.64941,0.52988 -8.23844,0 -9.15579,0.15691 -10.84098,1.85432 -1.01254,1.01988 -5.50642,8.43715 -9.9864,16.48284 -4.47999,8.04569 -8.55455,14.62852 -9.0546,14.62852 -0.50005,0 -4.37447,-5.93382 -8.60983,-13.18627 -4.23536,-7.25245 -8.1755,-13.18627 -8.75588,-13.18627 -0.58037,0 -4.52051,5.93382 -8.755871,13.18627 -4.235361,7.25245 -8.109783,13.18627 -8.609828,13.18627 -0.500045,0 -4.574615,-6.58283 -9.054598,-14.62852 z m 0.459831,-34.86223 c -4.306142,-8.17215 -8.692862,-15.67802 -9.748267,-16.67971 -1.863131,-1.76831 -2.593888,-1.83323 -25.13633,-2.23332 -12.769577,-0.22664 -23.682793,-0.71322 -24.25159,-1.08129 -0.568798,-0.36807 -2.529652,-2.8714 -4.357454,-5.56296 -3.323276,-4.89374 -3.323276,-4.89374 27.818792,-4.8894 28.172378,0.004 31.365882,0.14145 33.489125,1.44224 1.574729,0.96475 3.879882,4.40875 7.005207,10.46609 2.561982,4.9655 5.088377,9.15751 5.61421,9.31557 0.525832,0.15807 4.049042,-5.47629 7.829353,-12.52079 3.7803,-7.0445 7.24415,-12.80818 7.69742,-12.80818 0.45328,0 3.91713,5.76368 7.69744,12.80818 3.7803,7.0445 7.30351,12.67886 7.82934,12.52079 0.52584,-0.15806 3.05223,-4.35007 5.61421,-9.31557 3.12533,-6.05734 5.43048,-9.50134 7.00521,-10.46609 2.12324,-1.30079 5.31675,-1.43832 33.48913,-1.44224 31.14206,-0.004 31.14206,-0.004 27.79748,4.92078 -1.83952,2.70881 -4.05414,5.30486 -4.92138,5.76899 -0.96248,0.51511 -10.1225,0.84388 -23.51167,0.84388 -17.29096,0 -22.41188,0.24667 -24.18797,1.16512 -1.69439,0.8762 -4.28993,5.06391 -10.46688,16.88756 -4.51758,8.64734 -8.58465,15.71602 -9.03792,15.70817 -0.45328,-0.008 -4.34041,-5.93836 -8.63807,-13.17892 -4.29765,-7.24056 -8.19867,-13.16466 -8.66892,-13.16466 -0.47025,0 -4.37126,5.9241 -8.668911,13.16466 -4.297659,7.24056 -8.184786,13.17026 -8.638064,13.17711 -0.453278,0.007 -4.347349,-6.67386 -8.653491,-14.84601 z m -50.423855,-3.87244 c -1.159321,-1.24652 -2.752939,-3.28341 -3.541373,-4.52642 -0.788434,-1.24302 -1.218946,-2.81919 -0.956695,-3.50261 0.405206,-1.05594 3.234826,-1.24238 18.839846,-1.24129 15.836162,10e-4 18.758239,0.19957 21.235101,1.44225 1.632744,0.81917 3.671746,2.86347 4.725259,4.73753 1.01925,1.81312 1.859283,3.76015 1.86674,4.32675 0.01048,0.79627 -4.536098,1.03018 -20.023732,1.03018 -20.037289,0 -20.037289,0 -22.145146,-2.26639 z m 110.586221,0.93635 c 0,-0.73152 0.80247,-2.75784 1.78326,-4.50293 0.9808,-1.74509 2.98388,-3.74262 4.4513,-4.43896 2.15531,-1.02276 6.25213,-1.26606 21.31857,-1.26606 15.86045,0 18.72188,0.18589 19.12737,1.24257 0.26225,0.68342 -0.16826,2.25959 -0.9567,3.50261 -0.78843,1.24301 -2.38205,3.2799 -3.54137,4.52642 -2.10786,2.26639 -2.10786,2.26639 -22.14514,2.26639 -17.88972,0 -20.03729,-0.14256 -20.03729,-1.33004 z"
       id="path9" /></g></svg>
