<?xml version="1.0" encoding="UTF-8" standalone="no"?>
<!-- Created with Inkscape (http://www.inkscape.org/) -->

<svg
   width="210mm"
   height="297mm"
   viewBox="0 0 210 297"
   version="1.1"
   id="svg1"
   xml:space="preserve"
   xmlns="http://www.w3.org/2000/svg"
   xmlns:svg="http://www.w3.org/2000/svg"><defs
     id="defs1" /><g
     id="layer1"><path
       style="fill:#020202;stroke:none;stroke-width:1.02729"
       d="m 128.71455,28.592171 c 1.56989,4.261088 3.67198,8.471526 5.34549,12.774786 2.77655,7.139722 4.50731,14.84703 6.16087,22.287933 2.71634,12.223497 4.80188,24.681233 4.80188,37.23714 0,6.64387 -0.41595,13.73181 -3.21635,19.84168 -1.22531,2.67337 -2.80362,5.29936 -5.48139,6.74981 -2.58759,1.40161 -5.90054,0.8997 -8.69771,0.5889 -5.16635,-0.57402 -10.38017,-1.77624 -15.49283,-2.71803 v -0.2718 c 5.1976,-1.09424 9.00965,-7.05655 11.18926,-11.41577 6.81419,-13.62835 1.97169,-39.015363 -16.08171,-40.770592 -6.1963,-0.602434 -12.151674,3.821849 -15.402258,8.697731 -6.200499,9.300738 -7.034671,22.352371 -2.03851,32.344671 2.070619,4.14127 5.991155,10.10684 10.917428,11.14396 v 0.2718 c -5.460383,0.14368 -10.878494,1.64655 -16.30821,2.17443 -2.859445,0.278 -6.415784,0.86742 -8.969531,-0.90602 -2.128812,-1.47834 -3.355311,-3.89424 -4.394185,-6.16089 -2.813272,-6.13811 -3.587757,-14.31292 -2.944526,-20.928906 0.289064,-2.973236 -0.01658,-5.999522 0.271904,-8.969519 0.812314,-8.355273 2.065009,-16.767129 3.89586,-25.005969 1.941575,-8.737066 4.076411,-17.704358 7.338712,-26.093185 1.392322,-3.580302 3.22251,-7.051342 4.530055,-10.600355 H 83.866895 C 71.59787,46.131428 60.432214,65.278052 58.045506,86.758223 57.4852,91.800885 56.459977,97.125498 56.958303,102.25105 c 0.552844,5.68655 1.017099,11.23617 2.265013,16.85184 0.88474,3.98123 2.884592,7.7447 3.714674,11.68758 -5.320374,0 -11.302134,0.8342 -16.036449,-1.99323 -7.333904,-4.37997 -8.765685,-13.96578 -9.513118,-21.65372 -1.672075,-17.19827 1.760526,-35.141728 5.254857,-51.914559 1.135008,-5.448073 3.171058,-11.566185 3.171058,-17.123652 -1.982803,1.147956 -3.283081,3.771616 -4.439476,5.707885 -2.781135,4.6568 -4.767944,9.488539 -7.0216,14.405613 -2.365845,5.161838 -4.229303,10.822292 -5.753183,16.30824 -3.672258,13.220129 -6.976311,26.440203 -6.976311,40.226983 0,7.46861 0.513496,17.28226 7.066918,22.19733 4.955044,3.71628 11.265935,3.86996 17.123652,4.43946 12.052662,1.17178 24.670603,-1.0127 36.421738,-3.62405 3.003743,-0.66751 5.949098,-1.79925 8.969531,-2.35564 -1.205471,2.29039 -3.175866,2.02742 -5.4361,2.71805 -5.1472,1.57277 -10.540884,2.58992 -15.764627,3.89585 -12.411692,3.10293 -24.798901,6.63547 -36.965326,10.69096 -6.517886,2.17263 -13.847866,4.24883 -19.569907,8.06352 -3.0765,2.05101 -3.261638,5.19233 -3.261638,8.60712 0,5.88778 0.790788,11.67968 2.219724,17.39546 4.847636,19.39052 12.220613,37.54815 22.423827,54.6326 2.695612,4.51355 5.715271,8.95057 9.014848,13.0466 1.149763,1.42728 2.269656,3.4336 3.850542,4.34887 -1.043847,-5.66672 -2.987329,-11.29807 -4.530055,-16.85186 -4.050934,-14.58333 -8.606079,-29.07883 -12.276485,-43.76045 -1.298565,-5.19423 -2.78796,-10.42643 -3.306955,-15.76463 -0.296194,-3.04676 -0.940143,-6.58238 0.362429,-9.51313 1.020056,-2.29516 3.88558,-3.82862 5.88908,-5.16428 5.227832,-3.48523 11.273727,-7.35789 17.123652,-9.51313 -2.319395,2.38207 -2.41423,5.84466 -2.71805,8.96953 -0.495286,5.09432 -0.220508,10.1566 0.271904,15.22101 1.803992,18.55508 6.728834,36.75391 15.447544,53.2736 2.30696,4.37103 4.986545,8.52116 7.972907,12.50296 1.267588,1.69012 2.755298,4.11057 4.575372,5.16428 -1.485029,-8.06164 -4.650837,-15.90036 -6.432695,-23.91875 -3.048397,-13.71788 -5.802259,-27.37467 -7.157498,-41.31419 -0.542455,-5.57932 -0.817426,-11.2398 -0.271904,-16.85185 0.20531,-2.11041 0.493324,-4.44695 1.721453,-6.2515 3.808707,-5.59649 11.967416,-6.1649 17.576633,-8.96953 -0.06798,2.58498 -1.045119,5.33616 -1.540212,7.88232 -0.768737,3.9535 -1.333105,7.96529 -1.721425,11.95937 -1.554194,15.98626 2.135334,34.21903 10.237948,48.10931 3.677286,6.30398 8.75046,14.84916 16.398847,16.76125 9.0479,2.26197 16.4437,-9.77123 20.20411,-16.21764 9.4817,-16.25446 12.03815,-35.84479 10.23794,-54.36081 -0.47232,-4.8581 -2.11306,-9.37417 -2.98984,-14.1338 5.56578,2.78292 13.89846,3.33489 17.57666,8.96953 1.888,2.89224 1.67697,6.53218 1.99322,9.78494 0.49023,5.04225 -0.0544,10.19054 -0.54362,15.22102 -1.42257,14.63188 -4.22847,29.08513 -7.42929,43.48866 -1.5548,6.99651 -4.04936,13.89288 -5.34549,20.9289 1.79927,-1.06982 3.30975,-3.47678 4.57537,-5.16428 3.29115,-4.38821 6.3453,-8.97597 8.78832,-13.86201 8.41561,-16.83119 13.08761,-34.86354 14.90393,-53.54538 0.72997,-7.50813 1.27684,-16.09452 -2.44623,-22.83153 5.32792,3.36502 11.2622,5.78672 16.58004,9.33193 1.92778,1.28518 4.80577,2.71825 5.93437,4.80187 1.58608,2.92816 1.16833,6.34941 0.86072,9.51315 -0.51949,5.34323 -1.86887,10.55589 -3.17106,15.76463 -3.44453,13.77818 -7.79514,27.35572 -11.59694,41.0424 -1.78089,6.41114 -4.82169,13.47862 -5.34549,20.1135 h 0.2719 c 3.68398,-5.18489 7.71946,-10.03734 11.05336,-15.49284 10.39344,-17.00751 18.15219,-35.46222 23.01273,-54.90441 1.55958,-6.23838 3.38029,-13.70304 2.40094,-20.11349 -0.4668,-3.05534 -0.59501,-5.28949 -3.30696,-7.2481 -5.64002,-4.07335 -13.28319,-6.14917 -19.8417,-8.33533 -12.54615,-4.18206 -25.26017,-7.76466 -38.05255,-10.96276 -4.9779,-1.24448 -9.97152,-2.42493 -14.94922,-3.66935 -1.97899,-0.49475 -4.22762,-0.37598 -4.89246,-2.67275 4.41209,1.97386 9.67563,2.63865 14.4056,3.62407 10.49991,2.18747 21.59858,3.40037 32.34467,2.35563 5.82644,-0.56646 13.19148,-1.32295 17.39547,-5.9797 5.1766,-5.73408 5.16428,-14.49771 5.16428,-21.74431 0,-18.602251 -5.53345,-37.713328 -12.4577,-54.904398 -1.97802,-4.910976 -4.28095,-9.492281 -6.7951,-14.133817 -1.15692,-2.135859 -2.80451,-5.288234 -4.93777,-6.523294 0.14507,5.512658 2.04727,11.457744 3.17106,16.85185 2.08134,9.990504 3.72829,20.059957 4.71127,30.17024 0.79399,8.166664 1.5682,16.816949 0.31708,25.005959 -1.08419,7.09669 -2.97826,15.69091 -10.10202,19.25279 -4.52566,2.26283 -10.30093,1.40432 -15.22104,1.40432 2.21635,-7.01843 4.71759,-13.81074 5.43607,-21.20071 2.13279,-21.936742 -4.27727,-42.582745 -14.63211,-61.699506 -2.70824,-4.999906 -5.9135,-9.84768 -9.33193,-14.405608 -1.37196,-1.829237 -2.72084,-4.391749 -4.57537,-5.707885 z"
       id="path1" /></g></svg>
