<?xml version="1.0" encoding="UTF-8" standalone="no"?>
<!-- Created with Inkscape (http://www.inkscape.org/) -->

<svg
   width="210mm"
   height="297mm"
   viewBox="0 0 210 297"
   version="1.1"
   id="svg1"
   xml:space="preserve"
   xmlns="http://www.w3.org/2000/svg"
   xmlns:svg="http://www.w3.org/2000/svg"><defs
     id="defs1" /><g
     id="layer1"><path
       style="fill:#020202;stroke:none"
       d="m 23.448871,138.56173 v 0.67104 l 32.881191,38.24955 53.683578,62.40716 h 0.67105 l 49.65731,-57.70985 36.90746,-42.94686 -9.39463,-9.39462 -16.10507,-15.65771 -4.69732,-4.13811 -6.0394,-0.33553 H 146.25006 93.237522 65.053644 l -11.407761,0.33553 -11.40776,10.40119 -18.789252,18.11821 m 40.262683,-16.77612 -8.4999,10.73671 -7.605173,15.43403 c -1.737781,-1.41597 -6.521854,-5.52616 -6.486765,-8.05253 0.02918,-2.10086 3.764345,-4.65907 5.144676,-6.03941 4.933772,-4.93377 10.177637,-12.0788 17.447162,-12.0788 m 75.157016,21.47343 8.05253,-0.67104 h 14.09194 l 8.72358,0.67104 v -12.74985 l 7.3815,6.0394 2.4605,3.35523 -3.80259,5.36835 -12.74985,14.09194 c -12.6642,-17.82369 -39.83623,-15.43402 -59.05194,-15.43402 -6.448712,0 -12.631444,-0.18421 -18.789255,-2.23682 -2.810859,-0.93695 -6.083017,-2.04929 -7.157808,-5.14468 -3.428957,-9.87538 12.959546,-13.0211 19.236613,-13.98009 12.54082,-1.91595 32.19152,-1.30659 39.36796,11.29591 1.64342,2.88599 1.65159,6.23435 2.23682,9.39463 m 8.05253,-21.47343 -0.67104,2.01313 -2.01314,-2.01313 h 2.68418 m -81.196412,47.64417 c 9.960913,0 20.276505,2.39073 30.197013,3.35523 7.359179,0.71547 14.794659,0.62753 22.144479,1.34209 2.45846,0.23901 4.93641,-0.25175 7.38149,0.22368 4.6462,0.90343 9.49558,0.83237 14.09194,2.23681 1.62682,0.49709 4.2366,1.37788 3.80259,3.57891 -0.99158,5.02875 -8.02584,5.5185 -11.85513,6.26309 -4.96282,0.96499 -10.36195,0.44736 -15.43402,0.44736 -1.9506,0 -4.92557,0.55692 -6.71045,-0.33552 -1.85495,-0.92748 -3.00357,-2.9619 -4.69731,-4.13811 -3.11396,-2.16247 -7.596833,-3.87945 -11.407768,-4.24995 -3.793579,-0.36882 -7.80049,-0.0339 -11.40776,1.1184 -1.673521,0.5346 -4.28839,2.59184 -6.039403,1.9013 -1.549389,-0.61103 -2.453133,-2.49398 -3.467062,-3.69075 -2.222647,-2.62345 -4.895895,-5.11148 -6.598609,-8.05254 m 29.525968,32.8812 c 9.843614,2.84946 19.528014,1.34209 29.525974,1.34209 l -14.09194,16.77611 h -0.67105 L 98.60588,207.67933 Z"
       id="path9" /></g></svg>
